<svg width="18" height="11" viewBox="0 0 18 11" fill="none" xmlns="http://www.w3.org/2000/svg">
<path d="M6.35726 6.0943C3.77056 4.51319 0.512139 7.09008 2.13764 9.76333C2.89843 11.0161 4.95443 11.3908 6.16799 10.545C7.08094 9.90966 7.36299 8.8425 7.37413 7.80746C6.01212 7.98592 5.79316 9.53491 4.19364 9.21369C4.73918 9.49922 5.38493 9.63484 5.97501 9.39571C4.69465 10.7056 2.83534 10.1452 2.73143 8.3C2.62752 6.44764 4.7763 5.9087 6.35726 6.0943Z" fill="url(#paint0_linear_3940_1242)"/>
<path d="M6.35726 6.0943C3.77056 4.51319 0.512139 7.09008 2.13764 9.76333C2.89843 11.0161 4.95443 11.3908 6.16799 10.545C7.08094 9.90966 7.36299 8.8425 7.37413 7.80746C6.01212 7.98592 5.79316 9.53491 4.19364 9.21369C4.73918 9.49922 5.38493 9.63484 5.97501 9.39571C4.69465 10.7056 2.83534 10.1452 2.73143 8.3C2.62752 6.44764 4.7763 5.9087 6.35726 6.0943Z" fill="white"/>
<path d="M5.85997 3.1605C7.15888 3.12124 8.37244 3.47815 9.37818 4.11702C9.87547 4.43467 10.3245 4.82013 10.7068 5.2627C11.4676 6.14427 11.9649 7.24712 12.0725 8.46418C12.0725 8.46775 12.0725 8.47132 12.0725 8.47489C12.0651 8.47489 12.0577 8.47132 12.0502 8.46775C11.0334 8.23576 10.0796 7.84316 9.21859 7.32564C8.71016 6.08716 7.66361 5.11994 6.36098 4.67737C5.81914 4.49178 5.23278 4.40255 4.62414 4.42039C3.5479 4.45252 2.56814 4.8237 1.7925 5.42331C0.693992 6.27276 -0.00371119 7.57904 0.00371119 9.0281C0.00371119 9.02453 0.00371119 9.02453 0.00371119 9.02096C0.00371119 9.01739 0.00371119 9.01025 0.00371119 9.00668L0 8.99954L0 8.99241C0 8.94601 0 8.90318 0 8.86035C0.0296895 7.42557 0.601213 6.11215 1.53272 5.10566C2.52361 4.03493 3.92273 3.31754 5.5074 3.18192C5.62245 3.17121 5.74121 3.16407 5.85997 3.1605Z" fill="url(#paint1_linear_3940_1242)"/>
<path d="M5.85997 3.1605C7.15888 3.12124 8.37244 3.47815 9.37818 4.11702C9.87547 4.43467 10.3245 4.82013 10.7068 5.2627C11.4676 6.14427 11.9649 7.24712 12.0725 8.46418C12.0725 8.46775 12.0725 8.47132 12.0725 8.47489C12.0651 8.47489 12.0577 8.47132 12.0502 8.46775C11.0334 8.23576 10.0796 7.84316 9.21859 7.32564C8.71016 6.08716 7.66361 5.11994 6.36098 4.67737C5.81914 4.49178 5.23278 4.40255 4.62414 4.42039C3.5479 4.45252 2.56814 4.8237 1.7925 5.42331C0.693992 6.27276 -0.00371119 7.57904 0.00371119 9.0281C0.00371119 9.02453 0.00371119 9.02453 0.00371119 9.02096C0.00371119 9.01739 0.00371119 9.01025 0.00371119 9.00668L0 8.99954L0 8.99241C0 8.94601 0 8.90318 0 8.86035C0.0296895 7.42557 0.601213 6.11215 1.53272 5.10566C2.52361 4.03493 3.92273 3.31754 5.5074 3.18192C5.62245 3.17121 5.74121 3.16407 5.85997 3.1605Z" fill="white"/>
<path d="M7.40011 1.58297C7.48176 1.5794 7.56341 1.5794 7.64505 1.5794C11.1373 1.5794 14.1137 3.84577 15.0043 6.96873C13.917 6.81526 12.8853 6.4869 11.9463 6.01221C11.2226 4.74875 10.0462 3.76011 8.63223 3.24259C7.86772 2.96064 7.03642 2.82144 6.168 2.84643C5.9045 2.85356 5.64843 2.87855 5.39236 2.91424C3.82624 3.14623 2.4531 3.92429 1.48448 5.03785C0.578946 6.07646 0.0259783 7.4113 0 8.85678C0 8.90318 0 8.94601 0 8.98884C0 8.97813 0 8.96742 0 8.95672C0 8.92459 0 8.89247 0 8.86035C0 8.85678 0 8.85321 0 8.84607C0 8.80681 0.00371119 8.76755 0.00371119 8.72829C0.00371119 8.71402 0.00371119 8.70331 0.00371119 8.68903C0.00371119 8.67476 0.00371119 8.66405 0.00371119 8.64977C0.00371119 8.63907 0.00371119 8.63193 0.00371119 8.62122C0.00371119 8.57839 0.00742238 8.53199 0.0111336 8.48916C0.0148448 8.44634 0.0148448 8.40351 0.0185559 8.36068C0.122469 7.05439 0.586368 5.83733 1.31376 4.80586C2.21558 3.52812 3.52563 2.53591 5.0732 2.00412C5.8043 1.75428 6.58365 1.60795 7.40011 1.58297Z" fill="url(#paint2_linear_3940_1242)"/>
<path d="M7.40011 1.58297C7.48176 1.5794 7.56341 1.5794 7.64505 1.5794C11.1373 1.5794 14.1137 3.84577 15.0043 6.96873C13.917 6.81526 12.8853 6.4869 11.9463 6.01221C11.2226 4.74875 10.0462 3.76011 8.63223 3.24259C7.86772 2.96064 7.03642 2.82144 6.168 2.84643C5.9045 2.85356 5.64843 2.87855 5.39236 2.91424C3.82624 3.14623 2.4531 3.92429 1.48448 5.03785C0.578946 6.07646 0.0259783 7.4113 0 8.85678C0 8.90318 0 8.94601 0 8.98884C0 8.97813 0 8.96742 0 8.95672C0 8.92459 0 8.89247 0 8.86035C0 8.85678 0 8.85321 0 8.84607C0 8.80681 0.00371119 8.76755 0.00371119 8.72829C0.00371119 8.71402 0.00371119 8.70331 0.00371119 8.68903C0.00371119 8.67476 0.00371119 8.66405 0.00371119 8.64977C0.00371119 8.63907 0.00371119 8.63193 0.00371119 8.62122C0.00371119 8.57839 0.00742238 8.53199 0.0111336 8.48916C0.0148448 8.44634 0.0148448 8.40351 0.0185559 8.36068C0.122469 7.05439 0.586368 5.83733 1.31376 4.80586C2.21558 3.52812 3.52563 2.53591 5.0732 2.00412C5.8043 1.75428 6.58365 1.60795 7.40011 1.58297Z" fill="white"/>
<path d="M8.94023 0.00540345C9.1295 -0.00173475 9.31877 -0.00173475 9.50804 0.00540345C12.8592 0.0981999 15.7837 1.92201 17.3201 4.59883C17.3349 4.62738 17.3535 4.65594 17.3683 4.68449C17.3349 4.68449 17.3015 4.68092 17.2681 4.68092C16.1065 4.61668 14.9969 4.34899 13.98 3.91356C13.145 2.9856 12.0799 2.25393 10.8775 1.79709C9.89772 1.4259 8.8289 1.23674 7.70812 1.26886C7.64132 1.27243 7.57823 1.27243 7.51142 1.276C6.63558 1.3224 5.79685 1.50442 5.0175 1.80423C3.47365 2.39313 2.17102 3.43174 1.28034 4.7523C0.567789 5.80518 0.118735 7.03652 0.0222444 8.35709C0.0185332 8.39992 0.014822 8.44275 0.014822 8.48557C0.0111109 8.5284 0.0111109 8.5748 0.00739967 8.61763C0.00739967 8.62834 0.00739967 8.63905 0.00739967 8.64618C0.00739967 8.66046 0.00739967 8.67117 0.00739967 8.68544C0.00368848 8.73898 0.00368848 8.79252 0.00368848 8.84248C0.00368848 8.8175 0.00368848 8.79252 0.00368848 8.76753C0.00368848 8.74255 0.00368848 8.71757 0.00368848 8.69258C0.00368848 8.68544 0.00368848 8.68187 0.00368848 8.67831C0.0370892 7.18999 0.452742 5.79091 1.16158 4.56314C2.01886 3.08196 3.30294 1.85776 4.86163 1.05115C5.57418 0.683531 6.34611 0.401573 7.15515 0.219549C7.73038 0.0982 8.32789 0.0232489 8.94023 0.00540345Z" fill="url(#paint3_linear_3940_1242)"/>
<path d="M8.94023 0.00540345C9.1295 -0.00173475 9.31877 -0.00173475 9.50804 0.00540345C12.8592 0.0981999 15.7837 1.92201 17.3201 4.59883C17.3349 4.62738 17.3535 4.65594 17.3683 4.68449C17.3349 4.68449 17.3015 4.68092 17.2681 4.68092C16.1065 4.61668 14.9969 4.34899 13.98 3.91356C13.145 2.9856 12.0799 2.25393 10.8775 1.79709C9.89772 1.4259 8.8289 1.23674 7.70812 1.26886C7.64132 1.27243 7.57823 1.27243 7.51142 1.276C6.63558 1.3224 5.79685 1.50442 5.0175 1.80423C3.47365 2.39313 2.17102 3.43174 1.28034 4.7523C0.567789 5.80518 0.118735 7.03652 0.0222444 8.35709C0.0185332 8.39992 0.014822 8.44275 0.014822 8.48557C0.0111109 8.5284 0.0111109 8.5748 0.00739967 8.61763C0.00739967 8.62834 0.00739967 8.63905 0.00739967 8.64618C0.00739967 8.66046 0.00739967 8.67117 0.00739967 8.68544C0.00368848 8.73898 0.00368848 8.79252 0.00368848 8.84248C0.00368848 8.8175 0.00368848 8.79252 0.00368848 8.76753C0.00368848 8.74255 0.00368848 8.71757 0.00368848 8.69258C0.00368848 8.68544 0.00368848 8.68187 0.00368848 8.67831C0.0370892 7.18999 0.452742 5.79091 1.16158 4.56314C2.01886 3.08196 3.30294 1.85776 4.86163 1.05115C5.57418 0.683531 6.34611 0.401573 7.15515 0.219549C7.73038 0.0982 8.32789 0.0232489 8.94023 0.00540345Z" fill="white"/>
<defs>
<linearGradient id="paint0_linear_3940_1242" x1="17.3741" y1="7.35877" x2="11.7279" y2="13.4699" gradientUnits="userSpaceOnUse">
<stop stop-color="white"/>
<stop offset="0.338542" stop-color="white"/>
<stop offset="0.338642" stop-color="#FF4B1C"/>
<stop offset="0.682192" stop-color="#FF4B1C"/>
<stop offset="0.682292" stop-color="#06FFFF"/>
<stop offset="1" stop-color="#06FFFF"/>
</linearGradient>
<linearGradient id="paint1_linear_3940_1242" x1="17.3741" y1="7.35877" x2="11.7279" y2="13.4699" gradientUnits="userSpaceOnUse">
<stop stop-color="white"/>
<stop offset="0.338542" stop-color="white"/>
<stop offset="0.338642" stop-color="#FF4B1C"/>
<stop offset="0.682192" stop-color="#FF4B1C"/>
<stop offset="0.682292" stop-color="#06FFFF"/>
<stop offset="1" stop-color="#06FFFF"/>
</linearGradient>
<linearGradient id="paint2_linear_3940_1242" x1="17.3741" y1="7.35877" x2="11.7279" y2="13.4699" gradientUnits="userSpaceOnUse">
<stop stop-color="white"/>
<stop offset="0.338542" stop-color="white"/>
<stop offset="0.338642" stop-color="#FF4B1C"/>
<stop offset="0.682192" stop-color="#FF4B1C"/>
<stop offset="0.682292" stop-color="#06FFFF"/>
<stop offset="1" stop-color="#06FFFF"/>
</linearGradient>
<linearGradient id="paint3_linear_3940_1242" x1="17.3741" y1="7.35877" x2="11.7279" y2="13.4699" gradientUnits="userSpaceOnUse">
<stop stop-color="white"/>
<stop offset="0.338542" stop-color="white"/>
<stop offset="0.338642" stop-color="#FF4B1C"/>
<stop offset="0.682192" stop-color="#FF4B1C"/>
<stop offset="0.682292" stop-color="#06FFFF"/>
<stop offset="1" stop-color="#06FFFF"/>
</linearGradient>
</defs>
</svg>
